<mxfile host="app.diagrams.net" agent="Mozilla/5.0 (Windows NT 10.0; Win64; x64) AppleWebKit/537.36 (KHTML, like Gecko) Chrome/128.0.0.0 Safari/537.36" version="24.7.7">
  <diagram name="Página-1" id="uXV4o6q1iHGMoHVMOO0D">
    <mxGraphModel dx="1195" dy="655" grid="1" gridSize="10" guides="1" tooltips="1" connect="1" arrows="1" fold="1" page="1" pageScale="1" pageWidth="827" pageHeight="1169" math="0" shadow="0">
      <root>
        <mxCell id="0" />
        <mxCell id="1" parent="0" />
        <mxCell id="JHgrzRtlxTBl27Gyx_V--3" value="" style="edgeStyle=orthogonalEdgeStyle;rounded=0;orthogonalLoop=1;jettySize=auto;html=1;" edge="1" parent="1" source="JHgrzRtlxTBl27Gyx_V--1" target="JHgrzRtlxTBl27Gyx_V--2">
          <mxGeometry relative="1" as="geometry" />
        </mxCell>
        <mxCell id="JHgrzRtlxTBl27Gyx_V--1" value="INICIO" style="ellipse;whiteSpace=wrap;html=1;" vertex="1" parent="1">
          <mxGeometry x="294" y="110" width="120" height="80" as="geometry" />
        </mxCell>
        <mxCell id="JHgrzRtlxTBl27Gyx_V--5" value="" style="edgeStyle=orthogonalEdgeStyle;rounded=0;orthogonalLoop=1;jettySize=auto;html=1;" edge="1" parent="1" source="JHgrzRtlxTBl27Gyx_V--2" target="JHgrzRtlxTBl27Gyx_V--4">
          <mxGeometry relative="1" as="geometry" />
        </mxCell>
        <mxCell id="JHgrzRtlxTBl27Gyx_V--2" value="NUMERO" style="shape=hexagon;perimeter=hexagonPerimeter2;whiteSpace=wrap;html=1;fixedSize=1;" vertex="1" parent="1">
          <mxGeometry x="294" y="230" width="120" height="80" as="geometry" />
        </mxCell>
        <mxCell id="JHgrzRtlxTBl27Gyx_V--7" value="" style="edgeStyle=orthogonalEdgeStyle;rounded=0;orthogonalLoop=1;jettySize=auto;html=1;" edge="1" parent="1" source="JHgrzRtlxTBl27Gyx_V--4" target="JHgrzRtlxTBl27Gyx_V--6">
          <mxGeometry relative="1" as="geometry" />
        </mxCell>
        <mxCell id="JHgrzRtlxTBl27Gyx_V--4" value="Ler NUMERO" style="shape=parallelogram;perimeter=parallelogramPerimeter;whiteSpace=wrap;html=1;fixedSize=1;" vertex="1" parent="1">
          <mxGeometry x="294" y="350" width="120" height="60" as="geometry" />
        </mxCell>
        <mxCell id="JHgrzRtlxTBl27Gyx_V--9" value="" style="edgeStyle=orthogonalEdgeStyle;rounded=0;orthogonalLoop=1;jettySize=auto;html=1;" edge="1" parent="1" source="JHgrzRtlxTBl27Gyx_V--6" target="JHgrzRtlxTBl27Gyx_V--8">
          <mxGeometry relative="1" as="geometry" />
        </mxCell>
        <mxCell id="JHgrzRtlxTBl27Gyx_V--12" value="" style="edgeStyle=orthogonalEdgeStyle;rounded=0;orthogonalLoop=1;jettySize=auto;html=1;" edge="1" parent="1" source="JHgrzRtlxTBl27Gyx_V--6" target="JHgrzRtlxTBl27Gyx_V--11">
          <mxGeometry relative="1" as="geometry" />
        </mxCell>
        <mxCell id="JHgrzRtlxTBl27Gyx_V--6" value="20 &amp;lt;= NUMERO &amp;lt;= 90&amp;nbsp;" style="rhombus;whiteSpace=wrap;html=1;" vertex="1" parent="1">
          <mxGeometry x="278" y="440" width="152" height="140" as="geometry" />
        </mxCell>
        <mxCell id="JHgrzRtlxTBl27Gyx_V--17" style="edgeStyle=orthogonalEdgeStyle;rounded=0;orthogonalLoop=1;jettySize=auto;html=1;entryX=0.5;entryY=0;entryDx=0;entryDy=0;exitX=0.5;exitY=1;exitDx=0;exitDy=0;" edge="1" parent="1" source="JHgrzRtlxTBl27Gyx_V--8" target="JHgrzRtlxTBl27Gyx_V--14">
          <mxGeometry relative="1" as="geometry">
            <mxPoint x="136.47" y="575" as="sourcePoint" />
            <Array as="points">
              <mxPoint x="136" y="545" />
              <mxPoint x="136" y="630" />
              <mxPoint x="355" y="630" />
            </Array>
          </mxGeometry>
        </mxCell>
        <mxCell id="JHgrzRtlxTBl27Gyx_V--8" value="Exibir&amp;nbsp;&quot;Número dentro do intervalo&quot;" style="shape=parallelogram;perimeter=parallelogramPerimeter;whiteSpace=wrap;html=1;fixedSize=1;" vertex="1" parent="1">
          <mxGeometry x="50" y="475" width="170" height="70" as="geometry" />
        </mxCell>
        <mxCell id="JHgrzRtlxTBl27Gyx_V--10" value="Sim" style="text;html=1;align=center;verticalAlign=middle;resizable=0;points=[];autosize=1;strokeColor=none;fillColor=none;" vertex="1" parent="1">
          <mxGeometry x="230" y="488" width="40" height="30" as="geometry" />
        </mxCell>
        <mxCell id="JHgrzRtlxTBl27Gyx_V--16" style="edgeStyle=orthogonalEdgeStyle;rounded=0;orthogonalLoop=1;jettySize=auto;html=1;exitX=0.5;exitY=1;exitDx=0;exitDy=0;" edge="1" parent="1" source="JHgrzRtlxTBl27Gyx_V--11" target="JHgrzRtlxTBl27Gyx_V--14">
          <mxGeometry relative="1" as="geometry">
            <mxPoint x="571.5288235294117" y="570" as="sourcePoint" />
            <Array as="points">
              <mxPoint x="571" y="540" />
              <mxPoint x="571" y="630" />
              <mxPoint x="355" y="630" />
            </Array>
          </mxGeometry>
        </mxCell>
        <mxCell id="JHgrzRtlxTBl27Gyx_V--11" value="Exibir&amp;nbsp;&quot;Número fora do intervalo&quot;" style="shape=parallelogram;perimeter=parallelogramPerimeter;whiteSpace=wrap;html=1;fixedSize=1;" vertex="1" parent="1">
          <mxGeometry x="490" y="480" width="160" height="60" as="geometry" />
        </mxCell>
        <mxCell id="JHgrzRtlxTBl27Gyx_V--13" value="Não" style="text;html=1;align=center;verticalAlign=middle;resizable=0;points=[];autosize=1;strokeColor=none;fillColor=none;" vertex="1" parent="1">
          <mxGeometry x="440" y="488" width="50" height="30" as="geometry" />
        </mxCell>
        <mxCell id="JHgrzRtlxTBl27Gyx_V--14" value="FIM" style="ellipse;whiteSpace=wrap;html=1;" vertex="1" parent="1">
          <mxGeometry x="295.47" y="750" width="120" height="80" as="geometry" />
        </mxCell>
      </root>
    </mxGraphModel>
  </diagram>
</mxfile>
